<svg data-v-423bf9ae="" xmlns="http://www.w3.org/2000/svg" viewBox="0 0 340 90" class="iconLeft"><!----><!----><defs data-v-423bf9ae=""><linearGradient data-v-423bf9ae="" gradientTransform="rotate(25)" id="bc51d1d5-fd78-4258-9893-6a2f91548e2c" x1="0%" y1="0%" x2="100%" y2="0%"><stop data-v-423bf9ae="" offset="0%" style="stop-color: rgb(79, 18, 176); stop-opacity: 1;"></stop><stop data-v-423bf9ae="" offset="100%" style="stop-color: rgb(142, 142, 142); stop-opacity: 1;"></stop></linearGradient></defs><g data-v-423bf9ae="" id="bcd9e3c0-523e-4ca8-9cc3-5d7863baaf33" fill="url(#bc51d1d5-fd78-4258-9893-6a2f91548e2c)" transform="matrix(4.702194690704346,0,0,4.702194690704346,131.06271362304688,-1.2695964574813843)"><path d="M2.87 13.34C3.81 13.34 4.68 12.94 5.13 12.31L5.35 13.15L6.55 13.15L6.55 9.19C6.55 7.31 5.57 6.36 3.62 6.36C2.64 6.36 1.82 6.61 1.20 7.10L1.82 8.08C2.26 7.70 2.83 7.51 3.47 7.51C4.52 7.51 5.13 8.01 5.13 8.90L5.13 9.45L4.96 9.39C2.09 8.31 0.51 9.79 0.51 11.21C0.51 12.45 1.56 13.34 2.87 13.34ZM3.30 12.25C2.46 12.25 2.00 11.72 2.00 11.11C2.00 10.34 2.89 9.57 4.94 10.30L5.13 10.35L5.13 10.54C5.13 11.62 4.26 12.25 3.30 12.25ZM11.86 6.36C10.86 6.36 10.11 6.77 9.58 7.42L9.46 6.53L8.23 6.53L8.23 16.22L9.64 16.22L9.64 12.32C10.15 12.94 10.89 13.31 11.86 13.31C13.58 13.31 14.95 12.00 14.95 9.84C14.95 7.69 13.58 6.36 11.86 6.36ZM11.52 12.12C10.28 12.12 9.48 11.14 9.48 9.84C9.48 8.55 10.28 7.55 11.52 7.55C12.72 7.55 13.50 8.55 13.50 9.84C13.50 11.14 12.72 12.12 11.52 12.12ZM17.19 5.26C17.70 5.26 18.11 4.86 18.11 4.36C18.11 3.86 17.70 3.46 17.19 3.46C16.68 3.46 16.28 3.86 16.28 4.36C16.28 4.86 16.68 5.26 17.19 5.26ZM16.51 13.15L17.89 13.15L17.89 6.53L16.51 6.53ZM23.26 3.82L20.11 3.82L20.11 13.15L23.26 13.15C26.51 13.15 28.29 11.10 28.29 8.47C28.29 5.86 26.51 3.82 23.26 3.82ZM23.03 11.94L21.60 11.94L21.60 5.03L23.03 5.03C25.52 5.03 26.75 6.39 26.75 8.47C26.75 10.57 25.52 11.94 23.03 11.94ZM33.06 13.34C34.87 13.34 36.58 12.57 36.58 10.60C36.58 9.04 35.34 8.33 33.96 7.85C32.40 7.28 31.51 6.90 31.51 6.14C31.51 5.40 32.23 4.87 33.18 4.87C33.98 4.87 34.64 5.12 35.32 5.69L36.28 4.71C35.54 4.08 34.65 3.59 33.03 3.59C31.40 3.59 29.97 4.62 29.97 6.17C29.97 7.86 31.51 8.44 33.05 8.98C34.07 9.36 35 9.76 35 10.69C35 11.61 34.04 12.06 33.02 12.06C31.85 12.06 31.08 11.74 30.39 10.89L29.34 11.91C30.17 12.85 31.30 13.34 33.06 13.34ZM39.97 11.87L39.97 3.82L38.49 3.82L38.49 13.15L44.29 13.15L44.29 11.87Z"></path></g><defs data-v-423bf9ae=""><linearGradient data-v-423bf9ae="" gradientTransform="rotate(25)" id="34cbc649-efad-40c6-afc6-bcb9c4559c9d" x1="0%" y1="0%" x2="100%" y2="0%"><stop data-v-423bf9ae="" offset="0%" style="stop-color: rgb(142, 142, 142); stop-opacity: 1;"></stop><stop data-v-423bf9ae="" offset="100%" style="stop-color: rgb(79, 18, 176); stop-opacity: 1;"></stop></linearGradient></defs><g data-v-423bf9ae="" id="0456c90b-2694-408f-86e2-f43ac2d8450e" transform="matrix(4.727535724639893,0,0,4.727535724639893,-18.640567779541016,-30.089557647705078)" stroke="none" fill="url(#34cbc649-efad-40c6-afc6-bcb9c4559c9d)"><style></style><path d="M19.379 6.463a.481.481 0 0 0-.479.338L18.16 8.5H6.5C5.1 8.5 4 9.6 4 11v7c0 1.4 1.1 2.5 2.5 2.5H7V23c0 .2.1.4.3.4 0 .1.1.1.2.1s.2 0 .3-.1l3.9-2.9h1.238L11.5 23.8c-.1.3 0 .6.3.7h.2c.2 0 .4-.1.5-.3l.744-1.708c.09.005.183.008.256.008h6.8l3.9 2.9c.1.1.2.1.3.1.1 0 .1 0 .2-.1.2 0 .3-.2.3-.4v-2.5h.5c1.4 0 2.5-1.1 2.5-2.5v-7c0-1.4-1.1-2.5-2.5-2.5h-7.037L19.9 7.2c.1-.2 0-.5-.3-.7a.696.696 0 0 0-.221-.037zM6.5 9.5h11.225l-3.82 8.777c.087-.292-.011-.58-.206-.677a6.888 6.888 0 0 1-2.084-1.684A7.059 7.059 0 0 0 12.95 12.5h.551c.3 0 .5-.2.5-.5s-.2-.5-.5-.5h-2V11c0-.3-.2-.5-.5-.5s-.5.2-.5.5v.5h-2c-.3 0-.5.2-.5.5s.2.5.5.5h.645a7.362 7.362 0 0 0 1.222 3.383 6.487 6.487 0 0 1-1.066.918C9 17 9 17.3 9.1 17.5c.1.1.2.2.4.2.1 0 .2 0 .3-.1.428-.27.813-.59 1.165-.942a7.373 7.373 0 0 0 2.234 1.742c0 .1.101.1.201.1.099 0 .295-.097.493-.195l-.52 1.195H11.5c-.1 0-.2 0-.3.1L8 22v-2c0-.3-.2-.5-.5-.5h-1c-.8 0-1.5-.7-1.5-1.5v-7c0-.8.7-1.5 1.5-1.5zm11.527 2H25.5c.8 0 1.5.7 1.5 1.5v7c0 .8-.7 1.5-1.5 1.5h-1c-.3 0-.5.2-.5.5v2l-3.2-2.3c-.1-.1-.2-.1-.3-.1h-6.87l4.397-10.1zm-7.88 1h1.798a6.036 6.036 0 0 1-.937 2.553 6.32 6.32 0 0 1-.862-2.553zm9.353 1c-.8 0-1.5.7-1.5 1.5v4c0 .3.2.5.5.5s.5-.2.5-.5v-1.5h3V19c0 .3.2.5.5.5s.5-.2.5-.5v-4c0-.8-.7-1.5-1.5-1.5h-2zm0 1h2c.3 0 .5.2.5.5v1.5h-3V15c0-.3.2-.5.5-.5z"></path></g><!----></svg>